<?xml version="1.0" encoding="UTF-8" standalone="no"?>
<svg
   xmlns:dc="http://purl.org/dc/elements/1.1/"
   xmlns:cc="http://creativecommons.org/ns#"
   xmlns:rdf="http://www.w3.org/1999/02/22-rdf-syntax-ns#"
   xmlns:svg="http://www.w3.org/2000/svg"
   xmlns="http://www.w3.org/2000/svg"
   xmlns:sodipodi="http://sodipodi.sourceforge.net/DTD/sodipodi-0.dtd"
   xmlns:inkscape="http://www.inkscape.org/namespaces/inkscape"
   inkscape:version="1.0 (4035a4fb49, 2020-05-01)"
   id="svg68"
   version="1.1"
   viewBox="0 0 165.27957 168.13165"
   height="168.13165mm"
   width="165.27957mm">
  <defs
     id="defs62">
    <filter
       height="1.0000407"
       y="-2.0316176e-05"
       width="1.0000364"
       x="-1.8200086e-05"
       id="filter1016"
       style="color-interpolation-filters:sRGB"
       inkscape:collect="always">
      <feGaussianBlur
         id="feGaussianBlur1018"
         stdDeviation="0.0043068318"
         inkscape:collect="always" />
    </filter>
  </defs>
  <sodipodi:namedview
     inkscape:pagecheckerboard="true"
     inkscape:window-maximized="1"
     inkscape:window-y="-9"
     inkscape:window-x="-9"
     inkscape:window-height="998"
     inkscape:window-width="1920"
     fit-margin-bottom="0"
     fit-margin-right="0"
     fit-margin-left="0"
     fit-margin-top="0"
     showgrid="false"
     inkscape:document-rotation="0"
     inkscape:current-layer="layer3"
     inkscape:document-units="mm"
     inkscape:cy="322.65917"
     inkscape:cx="262.16348"
     inkscape:zoom="1"
     inkscape:pageshadow="2"
     inkscape:pageopacity="0.0"
     borderopacity="1.0"
     bordercolor="#666666"
     pagecolor="#ffffff"
     id="base" />
  <metadata
     id="metadata65">
    <rdf:RDF>
      <cc:Work
         rdf:about="">
        <dc:format>image/svg+xml</dc:format>
        <dc:type
           rdf:resource="http://purl.org/dc/dcmitype/StillImage" />
        <dc:title></dc:title>
      </cc:Work>
    </rdf:RDF>
  </metadata>
  <g
     transform="translate(-24.94433,-60.510245)"
     style="display:inline"
     inkscape:label="Text"
     id="layer2"
     inkscape:groupmode="layer">
    <text
       id="text950"
       y="228.1261"
       x="23.121824"
       style="font-size:34.3869px;line-height:1.25;font-family:Panton;-inkscape-font-specification:Panton;fill:#ffffff;stroke-width:0.859673"
       xml:space="preserve"><tspan
         style="fill:#ffffff;stroke-width:0.859673"
         y="228.1261"
         x="23.121824"
         id="tspan948"
         sodipodi:role="line">MYDRUGS</tspan></text>
  </g>
  <g
     transform="translate(-24.94433,-60.510245)"
     inkscape:label="Logo"
     id="layer3"
     inkscape:groupmode="layer">
    <path
       sodipodi:nodetypes="ccssccscsccccscscsscc"
       id="path953"
       d="M 28.592526,188.50724 62.350221,63.170544 c 0,0 2.017998,-2.618749 6.553739,-2.525584 4.535742,0.09316 7.74854,0.09222 9.167254,4.533024 1.418715,4.440804 6.477223,18.118481 6.477223,18.118481 L 95.834905,63.982927 c 0,0 1.201772,-3.207586 4.141796,-3.007997 2.940019,0.199591 10.690859,0.264133 10.690859,0.264133 0,0 2.73934,-0.60216 4.27753,4.141423 1.53819,4.743582 9.15933,18.238456 9.15933,18.238456 l 6.00839,-17.641551 c 0,0 1.60213,-5.078593 5.87844,-5.079847 4.27631,-0.0013 6.81541,0.131633 6.81541,0.131633 0,0 4.07565,-0.736187 5.48042,4.742426 1.40477,5.478613 30.90478,119.794497 30.90478,119.794497 0,0 0.67173,12.09375 -7.41396,9.42343 -8.08569,-2.67032 -65.28687,-21.42922 -65.28687,-21.42922 0,0 -3.9427,-1.60246 -6.34756,0.33595 -0.218019,0.17573 -1.137193,0.4983 -2.203281,0.9395 -10.693369,4.42549 -59.46278,20.79425 -59.46278,20.79425 0,0 -10.677993,1.45388 -9.884883,-7.12277 z"
       style="fill:none;stroke:#494949;stroke-width:0.264583px;stroke-linecap:butt;stroke-linejoin:miter;stroke-opacity:0" />
    <path
       id="path955"
       d="m 57.964117,133.78656 12.364852,-47.25065 5.390515,14.83398 z"
       style="fill:none;stroke:#494949;stroke-width:0.264583px;stroke-linecap:butt;stroke-linejoin:miter;stroke-opacity:0" />
    <path
       style="fill:none;stroke:#494949;stroke-width:0.301026px;stroke-linecap:butt;stroke-linejoin:miter;stroke-opacity:0"
       d="M 153.00282,139.29669 139.14141,84.736907 133.09845,101.86552 Z"
       id="path955-6" />
    <path
       id="path972"
       d="m 52.302724,175.58074 28.848989,-54.93236 13.241565,39.95291 z"
       style="fill:none;stroke:#494949;stroke-width:0.264583px;stroke-linecap:butt;stroke-linejoin:miter;stroke-opacity:0" />
    <path
       style="fill:none;stroke:#494949;stroke-width:0.264583px;stroke-linecap:butt;stroke-linejoin:miter;stroke-opacity:0"
       d="M 155.07015,175.00913 126.22116,120.07677 112.9796,160.02968 Z"
       id="path972-8" />
    <path
       id="path989"
       d="M 90.366531,102.972 104.34411,77.265511 117.76956,102.1135 103.89097,143.128 Z"
       style="fill:none;stroke:#494949;stroke-width:0.264583px;stroke-linecap:butt;stroke-linejoin:miter;stroke-opacity:0" />
    <path
       transform="scale(0.26458333)"
       id="path995"
       d="m 129.65197,738.02475 c -13.21508,-2.49416 -20.88138,-10.50299 -20.83623,-21.76717 0.008,-2.04787 23.77039,-91.45851 63.80147,-240.06766 l 63.78839,-236.80445 2.97186,-2.65014 c 5.97289,-5.32629 14.53854,-7.20922 28.72386,-6.31416 11.00943,0.69467 16.09811,2.24894 20.10906,6.14204 3.51643,3.4131 3.75744,3.95168 11.03023,24.64854 9.90366,28.18376 19.75613,54.93277 20.23382,54.9339 0.23816,5.7e-4 3.66145,-5.54456 7.60732,-12.3225 3.94586,-6.77795 14.29058,-24.53991 22.98826,-39.47104 8.7339,-14.99329 16.88484,-28.16377 18.20586,-29.41743 1.31554,-1.24846 3.5314,-2.58493 4.92414,-2.96992 1.63895,-0.45305 10.77322,-0.47044 25.89299,-0.0493 21.55592,0.60043 23.54155,0.76239 25.70126,2.09628 3.36419,2.07782 6.07596,6.58096 9.97029,16.55661 5.39558,13.82118 32.70215,66.52438 34.33979,66.27767 0.35835,-0.054 5.87853,-15.43236 12.26704,-34.17415 6.38852,-18.7418 12.43674,-35.76945 13.4405,-37.83924 2.19492,-4.52596 7.4281,-10.05001 11.34797,-11.97871 2.61803,-1.28815 4.37871,-1.40425 21.07103,-1.38936 17.2653,0.0154 18.3667,0.0966 21.13951,1.55885 3.38458,1.78486 6.80337,5.44646 8.87623,9.50667 0.79786,1.56282 28.0118,105.76911 60.4754,231.56954 l 59.02474,228.72806 -0.46008,5.71442 c -0.92432,11.48058 -3.34367,18.8599 -7.8023,23.79799 -3.36264,3.72422 -7.70034,5.42522 -12.6937,4.97772 -2.31199,-0.2072 -52.22507,-16.26181 -129.13782,-41.53735 -68.95308,-22.65977 -127.61938,-41.67963 -130.36956,-42.26634 -6.56135,-1.39976 -11.39425,-0.76743 -17.0392,2.2294 -11.13472,5.91127 -67.72653,26.16945 -182.22672,65.23171 -56.7485,19.36001 -56.05435,19.18433 -67.36541,17.04951 z M 276.72263,636.44936 c 43.75104,-15.56762 79.89481,-28.51573 80.31948,-28.77357 0.81454,-0.49455 -49.33861,-152.96932 -50.30507,-152.93664 -0.51459,0.0174 -109.53569,207.28157 -109.96738,209.06321 -0.12687,0.52359 -0.0875,0.95193 0.0875,0.95188 0.17498,-5e-5 36.11445,-12.73724 79.86551,-28.30488 z m 310.58794,25.51172 c -0.1086,-1.24285 -109.74863,-209.07494 -110.29559,-209.07478 -0.68887,2e-4 -51.20031,151.94163 -50.68329,152.45835 0.48368,0.48339 159.05298,57.01689 160.13281,57.09092 0.49108,0.0336 0.87181,-0.17986 0.84607,-0.47449 z M 419.79311,463.74452 c 25.00705,-74.01445 26.21718,-77.83545 25.26633,-79.77826 -2.82219,-5.76632 -50.36327,-93.50003 -50.6684,-93.50493 -0.50291,-0.008 -53.14435,97.13369 -53.37382,98.49325 -0.1323,0.78388 46.47023,140.48218 50.9819,152.82611 0.21563,0.58998 0.61168,0.73884 0.94946,0.35687 0.31873,-0.36043 12.39877,-35.6373 26.84453,-78.39304 z m 157.04014,53.21963 C 565.06218,470.11801 526.3859,318.54888 526.14054,318.30367 c -0.17206,-0.17196 -0.41587,-0.1787 -0.54179,-0.015 -0.12592,0.16373 -5.46721,15.2018 -11.86952,33.41793 l -11.64057,33.12025 1.23576,2.58947 c 1.26221,2.64488 66.13362,124.79719 71.26496,134.19132 4.4728,8.1885 5.12766,6.83331 2.24387,-4.64352 z m -323.31212,-72.24539 33.6622,-61.45731 -10.4082,-28.72809 c -5.72451,-15.80046 -10.52905,-28.862 -10.67677,-29.02565 -0.1477,-0.16364 -0.4067,-0.15931 -0.57554,0.01 -0.16884,0.16894 -10.77481,40.32384 -23.56882,89.23311 -12.79402,48.90927 -23.43345,89.4885 -23.64317,90.17606 -0.23242,0.76194 -0.005,1.25 0.58339,1.24983 0.54162,-1.6e-4 15.72814,-26.95397 34.62691,-61.45758 z"
       style="fill:#ffffff;stroke:#494949;stroke-width:0.715411;stroke-miterlimit:4;stroke-dasharray:none;stroke-opacity:0;filter:url(#filter1016)" />
    <text
       transform="scale(0.9699621,1.0309681)"
       id="text1026"
       y="59.627232"
       x="112.1595"
       style="font-size:0.0104861px;line-height:1.25;font-family:Panton;-inkscape-font-specification:Panton;stroke-width:0.00026215;fill:#e6e6e6;"
       xml:space="preserve"><tspan
         style="stroke-width:0.00026215;fill:#e6e6e6;"
         y="59.627232"
         x="112.1595"
         id="tspan1024"
         sodipodi:role="line">By Lukesfridge</tspan></text>
  </g>
</svg>
