<?xml version="1.0" standalone="no"?>
<!DOCTYPE svg PUBLIC "-//W3C//DTD SVG 20010904//EN"
 "http://www.w3.org/TR/2001/REC-SVG-20010904/DTD/svg10.dtd">
<svg version="1.0" xmlns="http://www.w3.org/2000/svg"
 width="635.000000pt" height="635.000000pt" viewBox="0 0 635.000000 635.000000"
 preserveAspectRatio="xMidYMid meet">
<metadata>
Created by potrace 1.11, written by Peter Selinger 2001-2013
</metadata>
<g transform="translate(0.000000,635.000000) scale(0.100000,-0.100000)"
fill="#000000" stroke="none">
<path d="M1642 6328 c-55 -8 -112 -33 -149 -65 -18 -16 -33 -54 -48 -123 -2
-8 -38 -141 -80 -295 -42 -154 -92 -336 -110 -405 -63 -237 -76 -286 -147
-545 -39 -143 -71 -264 -72 -270 -2 -5 -8 -30 -15 -55 -7 -25 -57 -209 -111
-410 -93 -344 -155 -575 -271 -1010 -27 -102 -56 -207 -64 -235 -21 -76 -242
-905 -273 -1025 -11 -41 -39 -147 -63 -235 -45 -171 -49 -216 -23 -268 56
-110 205 -158 366 -117 113 29 1115 370 1708 580 80 29 156 56 170 60 59 19
371 141 433 169 118 53 67 65 837 -186 481 -156 828 -269 900 -293 256 -85
976 -316 1015 -326 111 -27 201 64 220 223 3 26 8 59 11 73 2 14 -14 97 -36
185 -22 88 -42 167 -44 175 -2 8 -16 60 -31 115 -14 55 -28 110 -31 123 -2 12
-22 89 -43 170 -40 152 -53 200 -56 217 -2 6 -17 64 -35 130 -17 66 -33 127
-35 135 -2 8 -29 114 -60 235 -88 338 -157 607 -225 870 -33 132 -79 305 -100
385 -21 80 -64 244 -95 365 -31 121 -67 261 -80 310 -26 99 -105 401 -111 425
-2 8 -21 83 -43 165 -21 83 -58 222 -81 310 -83 321 -96 355 -144 399 -12 10
-32 22 -45 27 -27 11 -334 13 -386 3 -39 -7 -107 -69 -134 -123 -11 -20 -46
-115 -79 -211 -92 -268 -172 -491 -178 -502 -4 -6 -29 27 -55 73 -49 84 -245
473 -314 624 -41 89 -58 113 -95 127 -14 6 -133 12 -265 15 -235 5 -241 5
-267 -16 -28 -23 -266 -412 -443 -726 -37 -66 -59 -95 -65 -88 -9 11 -35 78
-135 358 -47 132 -98 273 -113 314 -33 93 -73 135 -145 155 -64 18 -194 25
-265 14z m1500 -758 c23 -41 57 -104 76 -140 19 -36 54 -99 77 -140 23 -41 63
-115 90 -165 26 -49 60 -112 75 -140 104 -192 103 -190 90 -247 -17 -68 -310
-940 -492 -1461 -11 -32 -24 -55 -28 -50 -5 4 -122 348 -260 763 l-253 755 42
80 c45 88 75 144 256 475 67 124 137 252 155 285 18 33 44 79 57 103 l26 43
24 -43 c14 -24 43 -77 65 -118z m1298 -387 c34 -131 74 -287 90 -348 34 -130
101 -393 105 -415 2 -8 13 -51 25 -95 12 -44 23 -87 25 -95 12 -52 63 -253
125 -494 84 -328 93 -374 75 -355 -7 8 -24 34 -38 59 -54 100 -150 280 -232
435 -26 50 -60 113 -75 140 -28 52 -79 148 -170 320 -29 55 -67 127 -85 160
-18 33 -60 112 -94 176 l-61 116 61 174 c34 96 84 237 111 314 28 77 53 151
56 164 5 24 5 24 13 4 4 -12 35 -129 69 -260z m-2642 122 c12 -33 57 -158 101
-279 l80 -219 -43 -81 c-24 -44 -79 -146 -123 -226 -44 -80 -97 -176 -118
-215 -21 -38 -70 -126 -108 -195 -39 -69 -86 -154 -105 -190 -85 -159 -183
-323 -188 -317 -3 2 13 71 35 153 77 292 103 389 106 404 4 17 103 393 177
670 27 102 51 192 53 200 19 91 100 369 105 363 4 -4 17 -35 28 -68z m2132
-1287 c24 -46 63 -119 87 -163 24 -44 55 -102 69 -130 14 -27 40 -77 58 -110
17 -33 67 -127 110 -210 43 -82 82 -154 86 -160 4 -5 40 -73 80 -150 40 -77
132 -252 205 -390 72 -137 165 -313 205 -390 40 -77 90 -173 112 -214 21 -41
36 -76 34 -79 -5 -5 -298 96 -666 229 -30 11 -80 29 -110 39 -30 10 -111 38
-180 63 -69 25 -177 64 -240 86 -357 127 -405 147 -402 167 7 41 494 1494 501
1494 4 0 27 -37 51 -82z m-1607 -358 c209 -627 359 -1091 354 -1096 -5 -5
-999 -360 -1455 -520 l-153 -53 92 177 c98 189 137 263 286 547 53 99 122 232
155 295 33 63 77 147 98 185 21 39 61 115 90 170 104 198 249 472 299 565 29
52 59 110 68 128 12 22 19 28 24 20 4 -8 68 -195 142 -418z"/>
<path d="M4949 956 c-2 -3 -16 -7 -29 -9 -115 -19 -221 -108 -256 -214 -16
-50 -19 -88 -19 -263 1 -199 1 -207 27 -261 68 -147 186 -210 386 -204 164 4
269 53 332 152 43 67 50 105 51 245 0 105 -2 124 -17 135 -28 20 -387 18 -408
-2 -20 -21 -17 -172 4 -185 8 -6 47 -10 86 -10 76 0 88 -7 73 -46 -16 -45 -59
-63 -142 -61 -69 2 -79 5 -104 30 l-28 27 0 190 c0 189 0 190 25 215 48 48
172 49 216 2 11 -13 27 -36 35 -52 8 -16 22 -31 32 -33 29 -6 196 58 208 79 7
14 3 32 -16 72 -61 131 -185 197 -369 197 -45 0 -85 -2 -87 -4z"/>
<path d="M5755 942 c-153 -46 -225 -127 -230 -262 -8 -190 98 -277 389 -315
97 -13 137 -45 121 -96 -14 -42 -121 -62 -207 -39 -24 7 -49 25 -70 50 -19 24
-40 40 -53 40 -11 0 -57 -13 -100 -29 -94 -34 -105 -51 -75 -115 64 -134 255
-202 470 -167 202 34 313 153 297 320 -10 100 -46 162 -120 205 -40 24 -123
49 -192 60 -16 2 -50 8 -75 12 -25 4 -47 8 -50 9 -3 0 -19 6 -37 14 -57 24
-47 93 17 109 85 21 187 -12 205 -67 3 -11 13 -22 21 -25 21 -8 193 64 205 87
15 26 -23 99 -74 142 -66 57 -134 77 -267 81 -90 3 -128 0 -175 -14z"/>
<path d="M62 928 c-17 -17 -17 -879 0 -896 19 -19 202 -16 219 4 19 23 15 307
-5 399 -9 39 -18 82 -20 98 -3 15 -8 37 -11 50 -5 14 -4 18 2 12 6 -5 22 -46
37 -90 33 -95 119 -263 148 -288 20 -17 107 -24 154 -11 23 6 133 215 174 332
33 90 38 81 14 -23 -26 -112 -34 -188 -34 -320 0 -104 4 -155 12 -163 16 -16
210 -16 226 0 17 17 17 879 0 896 -18 18 -212 16 -227 -1 -11 -14 -54 -95
-118 -222 -19 -38 -39 -77 -44 -85 -5 -8 -21 -41 -36 -72 -16 -32 -31 -58 -34
-58 -3 0 -55 96 -114 213 -59 116 -114 218 -123 225 -21 16 -203 17 -220 0z"/>
<path d="M1064 925 c-6 -14 35 -87 224 -408 l82 -138 0 -160 c0 -91 4 -169 10
-180 10 -17 22 -19 121 -19 104 0 110 1 118 23 5 12 9 92 9 178 l0 157 123
208 c164 280 185 316 184 334 0 12 -22 15 -127 18 l-127 3 -28 -39 c-16 -22
-55 -91 -88 -155 -33 -64 -63 -113 -66 -109 -4 4 -37 66 -74 137 -37 72 -76
138 -87 148 -17 14 -40 17 -144 17 -100 0 -126 -3 -130 -15z"/>
<path d="M2022 928 c-9 -9 -12 -122 -12 -449 0 -371 2 -438 15 -449 11 -9 74
-11 247 -8 210 4 238 6 289 26 109 43 177 117 204 223 22 83 22 351 1 422 -38
128 -127 207 -264 236 -74 15 -464 15 -480 -1z m434 -229 c15 -8 36 -26 48
-41 18 -25 20 -43 20 -176 1 -165 -6 -187 -65 -218 -31 -15 -164 -24 -185 -12
-7 5 -11 376 -5 454 1 15 152 9 187 -7z"/>
<path d="M2910 925 c-20 -24 -19 -883 1 -896 8 -5 60 -9 115 -9 79 0 104 3
114 15 9 11 13 59 14 153 l1 137 25 1 c58 1 79 -22 141 -151 71 -152 75 -155
222 -155 148 0 147 -2 62 163 -37 73 -74 139 -81 148 -20 22 -19 24 31 70 95
87 119 267 52 394 -23 44 -76 91 -132 117 -47 22 -64 23 -301 26 -221 3 -252
1 -264 -13z m447 -239 c25 -30 29 -62 12 -100 -16 -34 -31 -39 -130 -42 l-86
-2 0 81 c0 45 1 85 3 88 2 3 43 5 90 4 81 -2 89 -4 111 -29z"/>
<path d="M3762 923 c-6 -10 -10 -153 -10 -317 0 -327 6 -375 56 -453 59 -91
158 -140 301 -149 62 -4 104 -2 151 10 36 9 71 18 78 19 7 2 37 21 67 43 57
41 105 114 121 184 10 45 12 633 2 660 -7 18 -16 20 -116 20 -77 0 -113 -4
-120 -13 -7 -8 -12 -123 -14 -324 -3 -310 -3 -312 -26 -336 -47 -50 -162 -51
-212 -2 l-25 25 -3 312 c-2 205 -7 316 -14 325 -7 9 -42 13 -119 13 -93 0
-110 -2 -117 -17z"/>
</g>
</svg>
